<?xml version="1.0" encoding="UTF-8" standalone="no"?>
<svg
   width="1125"
   height="2436"
   viewBox="0 0 1125 2436"
   version="1.1"
   id="svg1"
   xmlns="http://www.w3.org/2000/svg"
   xmlns:svg="http://www.w3.org/2000/svg">

  <!-- Background Gradient -->
  <defs>
    <linearGradient id="backgroundGradient" x1="0" y1="0" x2="1" y2="1">
      <stop offset="0%" stop-color="#E6F5E6" /> <!-- Light green -->
      <stop offset="100%" stop-color="#F0F8FF" /> <!-- Light blue -->
    </linearGradient>
  </defs>

  <!-- Background -->
  <rect width="100%" height="100%" fill="url(#backgroundGradient)" />

  <!-- Abstract Sun -->
  <circle cx="200" cy="200" r="150" fill="#FFD700" opacity="0.3" />
  <circle cx="200" cy="200" r="120" fill="#FFA500" opacity="0.2" />

  <!-- Abstract Fields -->
  <rect x="0" y="1200" width="100%" height="1236" fill="#8FBC8F" opacity="0.6" /> <!-- Green field -->
  <rect x="0" y="1400" width="100%" height="1036" fill="#6B8E23" opacity="0.7" /> <!-- Darker green field -->
  <rect x="0" y="1600" width="100%" height="836" fill="#556B2F" opacity="0.8" /> <!-- Darkest green field -->

  <!-- Abstract Crops -->
  <g transform="translate(100, 1500)">
    <!-- Wheat stalks -->
    <line x1="50" y1="0" x2="50" y2="200" stroke="#DAA520" stroke-width="10" />
    <line x1="150" y1="0" x2="150" y2="250" stroke="#DAA520" stroke-width="10" />
    <line x1="250" y1="0" x2="250" y2="300" stroke="#DAA520" stroke-width="10" />
    <!-- Wheat grains -->
    <circle cx="50" cy="50" r="10" fill="#FFD700" />
    <circle cx="150" cy="100" r="15" fill="#FFD700" />
    <circle cx="250" cy="150" r="20" fill="#FFD700" />
  </g>

  <!-- Abstract Trees -->
  <g transform="translate(800, 1300)">
    <!-- Tree trunks -->
    <rect x="0" y="0" width="30" height="200" fill="#8B4513" />
    <rect x="100" y="0" width="30" height="250" fill="#8B4513" />
    <rect x="200" y="0" width="30" height="300" fill="#8B4513" />
    <!-- Tree leaves -->
    <circle cx="15" cy="-50" r="80" fill="#228B22" opacity="0.6" />
    <circle cx="115" cy="-75" r="100" fill="#228B22" opacity="0.6" />
    <circle cx="215" cy="-100" r="120" fill="#228B22" opacity="0.6" />
  </g>

  <!-- Abstract Clouds -->
  <g transform="translate(300, 100)">
    <circle cx="0" cy="0" r="80" fill="#FFFFFF" opacity="0.8" />
    <circle cx="100" cy="0" r="100" fill="#FFFFFF" opacity="0.8" />
    <circle cx="200" cy="0" r="120" fill="#FFFFFF" opacity="0.8" />
  </g>

  <!-- Abstract Irrigation -->
  <g transform="translate(500, 1800)">
    <line x1="0" y1="0" x2="500" y2="0" stroke="#87CEEB" stroke-width="10" stroke-dasharray="20,10" />
    <circle cx="0" cy="0" r="15" fill="#87CEEB" />
    <circle cx="500" cy="0" r="15" fill="#87CEEB" />
  </g>

</svg>
