<?xml version="1.0" encoding="UTF-8" standalone="no"?>
<svg
   width="1125"
   height="2436"
   viewBox="0 0 1125 2436"
   version="1.1"
   id="svg1"
   xmlns="http://www.w3.org/2000/svg"
   xmlns:svg="http://www.w3.org/2000/svg">
  
  <defs>
    <pattern id="flowerPattern" width="100" height="100" patternUnits="userSpaceOnUse">
      <!-- Flower design -->
      <circle cx="50" cy="50" r="15" fill="#FFB6C1" />  <!-- Flower center -->
      <ellipse cx="50" cy="30" rx="15" ry="20" fill="#FF69B4" transform="rotate(0 50 50)"/>
      <ellipse cx="50" cy="70" rx="15" ry="20" fill="#FF69B4" transform="rotate(0 50 50)"/>
      <ellipse cx="30" cy="50" rx="15" ry="20" fill="#FF69B4" transform="rotate(90 50 50)"/>
      <ellipse cx="70" cy="50" rx="15" ry="20" fill="#FF69B4" transform="rotate(90 50 50)"/>
      <!-- Leaves -->
      <path d="M35 80 Q45 100 55 80 Q65 100 75 80" fill="#90EE90" stroke="#228B22" stroke-width="2"/>
    </pattern>
  </defs>

  <g id="layer2">
    <rect
       width="100%"
       height="100%"
       fill="url(#flowerPattern)"
       opacity="0.3"/>
    
    <rect
       width="1129.8258"
       height="2444.9668"
       x="0"
       y="0"
       fill="none"
       stroke="#333"
       stroke-width="2"/>
  </g>

  <!-- Original colored rectangles (now on top of floral background) -->
  <g id="layer1">
    <rect id="rect1" width="212.70033" height="80.701843" x="5.9778814" y="-98.635605" fill="#442178"/>
    <rect id="rect2" width="209.1355" height="71.73497" x="468.36569" y="-89.668747" fill="#e9afaf"/>
    <rect id="rect3" width="211.51204" height="77.712883" x="235.59143" y="-95.646629" fill="#ff00ff"/>
    <rect id="rect4" width="209.1355" height="65.757057" x="694.54108" y="-83.690811" fill="#d40055"/>
    <rect id="rect5" width="207.94724" height="59.77914" x="926.27777" y="-80.701813" fill="#ff5555"/>
  </g>

</svg>
